<svg xmlns="http://www.w3.org/2000/svg" viewBox="0 0 546.6253602305476 164" width="546.6253602305476" height="164"><g transform="translate(44,24.0)"><circle cx="60" cy="58" r="54" fill="none" stroke="#1b2b45" stroke-width="2"/>
<circle cx="60" cy="58" r="49.5" fill="none" stroke="#1b2b45" stroke-width="0.6" opacity="0.55"/>
<line x1="60" y1="20" x2="30" y2="96" stroke="#1b2b45" stroke-width="3.2" stroke-linecap="round" opacity="1.0"/>
<line x1="60" y1="20" x2="90" y2="96" stroke="#1b2b45" stroke-width="3.2" stroke-linecap="round" opacity="1.0"/>
<line x1="40.26315789473684" y1="70.0" x2="79.73684210526315" y2="70.0" stroke="#1b2b45" stroke-width="3.2" stroke-linecap="round" opacity="1.0"/>
<circle cx="30" cy="96" r="5.0" fill="#ffffff" stroke="#1b2b45" stroke-width="3"/>
<circle cx="90" cy="96" r="5.0" fill="#ffffff" stroke="#1b2b45" stroke-width="3"/>
<circle cx="40.26315789473684" cy="70.0" r="4.2" fill="#ffffff" stroke="#1b2b45" stroke-width="2.6"/>
<circle cx="79.73684210526315" cy="70.0" r="4.2" fill="#ffffff" stroke="#1b2b45" stroke-width="2.6"/>
<circle cx="60" cy="20" r="5.6" fill="#1b2b45"/>
<circle cx="60" cy="70" r="6.2" fill="#1b2b45"/>
<circle cx="60" cy="70" r="2.4" fill="#ffffff"/></g><g transform="translate(44,24.0)"><g fill="#1b2b45" transform="translate(154.00,46.25) scale(0.04323,-0.04323)"><g><path d="M31 0 315 694H383L666 0H564L331 587H366L131 0ZM166 157V239H531V157Z" transform="translate(0.00,0)"/><path d="M145 270V352H334Q373 352 403.5 368.0Q434 384 451.5 413.0Q469 442 469 482Q469 522 451.5 551.0Q434 580 403.5 596.0Q373 612 334 612H145V694H340Q404 694 454.5 668.0Q505 642 534.5 594.5Q564 547 564 482Q564 418 534.5 370.5Q505 323 454.5 296.5Q404 270 340 270ZM82 0V694H176V0Z" transform="translate(836.00,0)"/><path d="M145 270V352H334Q373 352 403.5 368.0Q434 384 451.5 413.0Q469 442 469 482Q469 522 451.5 551.0Q434 580 403.5 596.0Q373 612 334 612H145V694H340Q404 694 454.5 668.0Q505 642 534.5 594.5Q564 547 564 482Q564 418 534.5 370.5Q505 323 454.5 296.5Q404 270 340 270ZM82 0V694H176V0Z" transform="translate(1582.00,0)"/><path d="M82 0V694H176V0ZM146 0V86H518V0Z" transform="translate(2328.00,0)"/><path d="M82 0V694H176V0Z" transform="translate(3020.00,0)"/><path d="M82 0V694H176V0ZM146 0V86H544V0ZM146 314V396H511V314ZM146 608V694H539V608Z" transform="translate(3418.00,0)"/><path d="M144 0V86H337Q414 86 472.0 119.5Q530 153 562.5 212.0Q595 271 595 348Q595 424 562.0 483.0Q529 542 471.0 575.0Q413 608 337 608H145V694H339Q415 694 479.5 668.0Q544 642 591.5 595.0Q639 548 665.5 485.0Q692 422 692 347Q692 273 665.5 209.5Q639 146 592.0 99.0Q545 52 480.5 26.0Q416 0 341 0ZM82 0V694H176V0Z" transform="translate(4148.00,0)"/></g></g><g fill="#1b2b45" transform="translate(386.39,46.25) scale(0.04323,-0.04323)"><g><path d="M82 0V694H148L442 211H397L691 694H757V0H663V529L685 523L453 142H387L155 523L176 529V0Z" transform="translate(0.00,0)"/><path d="M82 0V694H176V0ZM146 0V86H518V0Z" transform="translate(979.00,0)"/></g></g><g fill="#1b2b45" transform="translate(154.00,69.75) scale(0.01801,-0.01801)"><g><path d="M31 0 315 694H383L666 0H564L331 587H366L131 0ZM166 157V239H531V157Z" transform="translate(0.00,0)"/><path d="M397 -10Q322 -10 258.0 17.5Q194 45 146.5 94.0Q99 143 73.0 208.0Q47 273 47 347Q47 422 73.0 487.0Q99 552 146.5 600.5Q194 649 257.5 676.5Q321 704 396 704Q478 704 540.0 676.0Q602 648 650 600L585 535Q552 572 504.5 593.0Q457 614 396 614Q341 614 295.0 594.5Q249 575 215.0 539.0Q181 503 162.5 454.0Q144 405 144 347Q144 289 162.5 240.0Q181 191 215.0 155.0Q249 119 295.0 99.5Q341 80 396 80Q461 80 509.0 101.5Q557 123 590 160L655 96Q607 46 542.5 18.0Q478 -10 397 -10Z" transform="translate(1316.00,0)"/><path d="M31 0 315 694H383L666 0H564L331 587H366L131 0ZM166 157V239H531V157Z" transform="translate(2624.00,0)"/><path d="M144 0V86H337Q414 86 472.0 119.5Q530 153 562.5 212.0Q595 271 595 348Q595 424 562.0 483.0Q529 542 471.0 575.0Q413 608 337 608H145V694H339Q415 694 479.5 668.0Q544 642 591.5 595.0Q639 548 665.5 485.0Q692 422 692 347Q692 273 665.5 209.5Q639 146 592.0 99.0Q545 52 480.5 26.0Q416 0 341 0ZM82 0V694H176V0Z" transform="translate(3940.00,0)"/><path d="M82 0V694H176V0ZM146 0V86H544V0ZM146 314V396H511V314ZM146 608V694H539V608Z" transform="translate(5300.00,0)"/><path d="M82 0V694H148L442 211H397L691 694H757V0H663V529L685 523L453 142H387L155 523L176 529V0Z" transform="translate(6510.00,0)"/><path d="M302 282 29 694H138L358 357H309L530 694H637L362 282ZM286 0V344H380V0Z" transform="translate(7969.00,0)"/></g></g></g></svg>